<svg width="97px" height="90px" viewBox="0 0 97 90" version="1.1" xmlns="http://www.w3.org/2000/svg" xmlns:xlink="http://www.w3.org/1999/xlink">
    <defs></defs>
    <g stroke="none" stroke-width="1" fill="none" fill-rule="evenodd">
        <g transform="translate(-366.000000, -174.000000)" fill="#3f3f3f">
            <path d="M459.791942,231.518495 C459.216767,231.961942 458.993088,231.961942 458.993088,232.450384 C458.993088,232.939369 458.771034,233.648993 458.41683,234.049071 C458.062626,234.447523 457.863319,234.126593 457.463621,233.327521 C457.063924,232.527906 456.243947,232.939369 456.243947,233.648993 C456.243947,234.359159 456.199537,235.068783 455.756511,235.513856 C455.312944,235.957846 454.857462,235.875987 454.857462,235.299722 C454.857462,234.722374 454.842297,233.603456 454.443683,232.627113 C454.045068,231.65077 452.874138,231.030594 451.943134,230.453246 C451.567267,230.221222 449.673847,228.584587 449.282815,228.323289 C448.750426,227.967664 448.92807,227.790394 449.105171,227.390316 C449.282815,226.991321 450.30264,227.213587 450.701255,227.035233 C451.099869,226.858504 450.96772,225.926614 451.765491,225.792713 C452.563803,225.659896 454.338071,225.526536 456.111798,226.05889 C457.884983,226.591785 459.525477,227.701488 460.012913,228.767279 C460.501975,229.831986 460.3682,231.074505 459.791942,231.518495 Z M450.533902,250.539561 C449.735589,251.072999 448.853329,251.661732 448.27653,252.19517 C447.701355,252.728065 447.228542,252.62669 447.228542,252.094337 C447.228542,251.561441 447.724643,250.972708 448.18175,250.285853 C448.448216,249.885775 448.571699,249.552918 449.104088,249.331737 C449.635935,249.108929 450.503572,248.746798 450.947681,249.013517 C451.390706,249.279152 451.332756,250.00775 450.533902,250.539561 Z M447.089893,246.449872 C446.671781,247.859362 445.837182,249.035202 445.883759,250.162794 C445.929253,251.29147 445.790604,252.324734 444.956005,253.124349 C444.121406,253.923421 442.961307,253.970043 440.967151,254.063828 C438.973537,254.15924 438.138937,255.145883 436.93172,255.569814 C435.725586,255.991577 435.772163,256.556457 434.890986,257.495936 C434.010351,258.436499 432.247998,258.529743 430.020956,258.388251 C427.794455,258.247845 426.310482,257.120253 425.940031,256.461045 C425.569037,255.803464 426.355976,255.616435 427.424003,255.616435 C428.120496,255.616435 428.536983,255.662515 429.697623,255.616435 C430.855555,255.569814 431.181596,254.909522 432.989443,253.500574 C434.798374,252.091084 436.375501,251.338091 438.415693,250.210499 C440.457509,249.081823 440.735348,247.906526 440.735348,246.919883 C440.735348,245.93324 439.203715,244.098734 438.46227,242.783572 C437.720825,241.466783 437.304338,239.727689 437.395868,238.834832 C437.489022,237.942516 439.158221,237.095738 440.967151,236.061931 C442.776081,235.027582 443.982216,232.958885 444.352126,231.642638 C444.72366,230.326934 445.326457,230.139363 445.929253,230.091115 C446.532591,230.043951 447.228542,231.125464 448.759092,232.771314 C450.289642,234.416623 450.382796,236.483694 450.382796,237.942516 C450.382796,239.398628 449.593691,241.466783 448.61936,242.689244 C447.646112,243.911706 447.50638,245.039298 447.089893,246.449872 Z M445.416362,255.757384 C445.061075,256.113552 443.843567,256.268053 443.001385,256.490319 C442.158121,256.712043 441.829372,256.400329 441.252031,256.266969 C440.676314,256.134694 440.531708,255.586619 441.506581,255.408807 C442.481995,255.231536 442.826992,254.619492 443.540815,254.517033 C444.162025,254.428669 444.899138,254.594555 445.652497,254.860732 C446.406399,255.126909 445.770565,255.402843 445.416362,255.757384 Z M420.872317,255.721063 L410.438472,255.721063 C409.501511,255.75359 409.173304,256.501703 408.705365,256.501703 C408.42861,256.501703 408.086862,256.351539 407.853435,256.229563 C407.690414,256.14391 407.564222,255.822438 407.565847,255.497713 C407.567472,255.042339 407.603759,254.437885 407.767862,254.160324 C408.027287,253.718503 408.657705,253.586228 410.579287,253.873005 C412.500328,254.160324 414.047126,253.586228 415.593924,252.629401 C417.139097,251.6742 418.26345,251.006319 419.763671,250.719 C421.262267,250.433307 422.480857,250.433307 423.793686,249.905833 C425.105431,249.380527 425.480216,248.234503 425.480216,246.943735 C425.480216,245.65351 425.573912,244.744931 425.667066,244.171919 C425.761304,243.597823 426.229784,242.546127 426.979895,241.781208 C427.509034,241.242349 428.17953,240.439482 428.526693,240.01555 C428.671299,239.83828 428.965385,239.793285 429.209645,239.973808 C429.475027,240.168426 429.785362,240.495861 429.931051,241.017915 C430.212681,242.021363 430.69091,242.989032 431.711277,243.741483 C432.555625,244.362743 432.88329,245.080498 433.024105,245.749464 C433.16492,246.417345 433.679978,247.947184 433.632317,248.425326 C433.58574,248.902384 433.39889,249.812047 432.461387,250.289106 C431.950662,250.548777 431.524426,250.739058 431.24063,250.856696 C431.005036,250.955903 430.939503,251.07842 431.038615,251.199311 C431.331618,251.557647 431.858591,252.337203 431.383611,252.821851 C430.586924,253.633934 429.627757,253.504369 429.134905,253.873005 C428.432455,254.399395 427.494952,254.638466 427.448375,253.682181 C427.400715,252.725897 426.481626,251.528372 424.355321,252.821851 C421.684711,254.446017 421.638134,255.688536 420.872317,255.721063 Z M421.570435,218.042145 C421.156655,218.070877 420.687092,217.78681 420.273312,217.195367 C419.858992,216.604465 419.811331,216.551338 418.747095,216.018442 C417.682859,215.486089 417.981278,214.601905 417.952574,213.950287 C417.922786,213.299211 418.077683,211.310204 418.048978,209.623695 C418.018107,207.936644 417.760307,206.735325 417.31674,206.409516 C416.873715,206.083707 416.456686,206.23604 416.456686,205.702603 C416.456686,205.170791 416.837428,205.022795 417.285328,205.022795 C417.817175,205.022795 418.085806,205.397394 418.588407,205.901015 C419.092092,206.404095 419.160874,208.122588 419.160874,210.164722 C419.160874,212.205772 419.329852,213.938903 419.477708,214.205079 C419.626105,214.471256 420.166618,214.393192 420.432,213.505214 C420.698465,212.617235 421.440993,211.986759 422.17973,212.519113 C422.919008,213.050382 423.137813,213.692242 423.167601,214.373134 C423.197389,215.054026 423.108567,216.029827 422.753822,216.62127 C422.398535,217.212714 421.984756,218.012329 421.570435,218.042145 Z M419.492873,221.859152 C419.463085,222.420779 418.989188,222.805679 418.576492,223.101129 C418.162171,223.397122 418.132384,224.225469 417.65957,224.374007 C417.186757,224.522004 416.61429,224.468877 416.140394,223.876891 C415.667581,223.284905 416.035866,222.858805 416.332119,222.858805 C416.627289,222.858805 416.903503,222.416442 416.903503,222.032085 C416.903503,221.647186 416.182638,221.38372 415.473148,220.79065 C414.763115,220.199749 413.759538,220.175896 413.375005,220.027899 C412.990472,219.879361 413.176239,219.279243 413.106915,218.899223 C413.05763,218.627625 414.108326,218.390722 414.551893,218.627625 C414.994919,218.864528 415.472065,218.633588 415.708742,218.603772 C415.944878,218.574498 416.122521,218.166288 415.886927,217.959202 C415.461233,217.586771 415.475314,217.217051 415.91834,216.654339 C416.361907,216.092712 416.492973,216.67006 416.832553,217.095076 C417.068148,217.390527 417.216545,217.525512 417.570749,217.672425 C417.926036,217.820421 418.015941,218.236221 418.015941,218.531671 C418.015941,218.828206 417.575081,218.961566 416.776228,219.168652 C415.978998,219.375197 416.661951,220.030068 417.253374,220.0588 C417.844796,220.088074 418.408598,220.090242 418.970233,220.504957 C419.531868,220.91913 419.52266,221.29644 419.492873,221.859152 Z M413.015385,203.428445 C413.163241,203.014272 413.015385,202.097561 413.045173,201.564123 C413.074961,201.03177 413.961553,200.765593 414.345545,200.853957 C414.73062,200.942864 415.531098,201.105497 416.299081,201.223677 C417.068148,201.341858 417.493301,201.813495 417.73052,202.464028 C417.967197,203.115104 417.444015,203.482656 417.158053,203.546625 C416.522219,203.687574 416.372197,203.510846 416.490806,203.03704 C416.609416,202.564319 415.691952,202.320911 415.219139,202.52854 C414.746326,202.735084 414.332005,203.287496 414.360168,204.08711 C414.391039,204.886183 413.87544,204.591816 413.343593,204.533268 C412.811204,204.473636 412.86753,203.84316 413.015385,203.428445 Z M410.864166,198.519625 C410.095642,198.459993 409.499345,198.190563 409.529132,197.627852 C409.558379,197.066224 409.999238,197.086282 410.882039,197.2294 C411.798419,197.377396 412.377385,197.212594 413.05763,197.18332 C413.737333,197.152962 414.638548,197.895113 415.377827,198.487098 C416.075944,199.0471 416.782727,199.204312 416.872632,199.85593 C416.96037,200.506464 415.618295,200.209929 414.583306,200.269019 C413.548857,200.328651 413.248813,199.762687 412.835034,199.377788 C412.421255,198.993431 411.633233,198.578173 410.864166,198.519625 Z M410.843586,202.702015 C410.518628,203.027824 409.718691,203.581862 408.861345,204.055126 C408.003998,204.528931 407.237098,204.713791 406.49782,204.713791 C405.759083,204.713791 404.783669,204.182522 404.310314,203.649084 C403.837501,203.116189 404.157584,202.389759 404.347684,202.115451 C404.613608,201.730009 405.16766,201.780426 406.350506,201.986428 C407.53281,202.194599 408.563467,202.017329 409.242628,201.573339 C409.922873,201.12935 410.577662,201.104413 410.962195,201.430222 C411.346187,201.756031 411.169085,202.377291 410.843586,202.702015 Z M407.176981,208.351359 C405.979513,209.727238 404.886572,211.303699 404.443005,211.436516 C403.99998,211.569875 403.184336,211.129681 403.139925,210.641781 C403.094973,210.153338 402.685526,209.623695 401.931625,209.845961 C401.177723,210.067684 400.876596,209.756512 400.921007,208.957982 C400.964876,208.157826 400.782358,208.036935 400.691912,207.554456 C400.559221,206.844832 401.647829,206.921811 402.117934,207.138114 C403.235246,207.650951 404.141878,207.280147 405.205572,207.015055 C406.269808,206.748878 407.051873,205.987211 407.716952,205.454858 C408.382032,204.922504 408.858095,205.318246 409.16843,205.629418 C409.478764,205.939505 408.37445,206.974396 407.176981,208.351359 Z M401.296333,199.568611 C401.828722,199.421699 401.56009,198.899645 401.264379,198.455656 C400.968667,198.011125 401.953289,197.593157 402.662779,197.564425 C403.372812,197.535151 403.465424,197.178983 404.061722,196.833658 C404.978102,196.300221 405.389715,196.924191 405.655638,197.663631 C405.922104,198.403613 405.479078,198.761949 404.888197,199.028126 C404.296774,199.294302 403.906284,199.770276 403.107971,200.331904 C402.3102,200.894616 403.054353,201.599361 402.640574,202.012992 C402.226795,202.428249 401.872049,202.162072 401.398694,201.895896 C400.925881,201.629719 400.783441,201.458412 400.723866,200.77752 C400.664832,200.098254 400.763944,199.717149 401.296333,199.568611 Z M402.855046,182.512699 C404.392095,182.956146 404.165708,183.601259 404.283776,184.519053 C404.402385,185.436848 404.991642,186.293926 405.523489,186.619735 C406.055878,186.94446 406.642426,187.343454 407.144486,188.083437 C407.647628,188.822335 407.785735,190.463848 407.43099,191.232562 C407.076244,192.002361 407.114698,192.792759 407.558265,192.378586 C408.001832,191.963871 409.055778,192.691926 409.529132,193.047009 C410.001946,193.402093 410.864166,193.777234 411.5,193.87373 C412.061635,193.958299 411.635941,193.093631 411.340771,192.888171 C411.045059,192.68 410.233207,191.970376 409.878462,191.614209 C409.524258,191.259126 409.180886,190.619434 409.624453,190.087081 C410.067479,189.554185 410.483424,189.338425 410.069645,189.101522 C409.655866,188.864077 409.211216,188.701444 409.211216,188.05091 C409.211216,187.400376 409.200384,186.908681 408.638749,186.523782 C408.077655,186.139425 408.103652,185.233014 408.162144,184.996112 C408.221178,184.760293 409.447351,184.732103 410.778053,185.353363 C412.108212,185.974623 412.669847,187.010056 413.172448,188.194027 C413.675049,189.377999 413.290516,191.626135 413.113414,192.485382 C412.935771,193.34246 413.260728,194.792066 413.645261,195.23714 C414.030336,195.680045 413.911727,195.975496 413.645261,195.97658 C413.200611,195.97658 411.93761,196.144635 410.578204,195.877916 C409.28054,195.62475 408.102027,195.741304 407.303715,196.037839 C406.505944,196.333289 406.196151,195.8584 406.018508,195.561865 C405.841406,195.26533 405.746085,194.949821 406.159864,194.033652 C406.573643,193.115858 405.969222,193.389082 405.555443,193.714891 C405.141664,194.0407 404.775545,194.654912 404.125088,194.891815 C403.475173,195.128718 402.707732,193.964804 402.707732,193.193922 C402.707732,192.42575 402.707732,191.359416 402.973114,190.975059 C403.240121,190.591244 403.476256,189.230002 403.682604,188.163669 C403.890036,187.098962 403.624112,186.921149 403.417222,186.595883 C403.209791,186.271158 402.855046,185.974623 402.589122,185.383179 C402.323199,184.791735 402.086521,184.021937 401.998241,183.222323 C401.909419,182.423792 402.384941,182.376629 402.855046,182.512699 Z M417.579414,191.634267 C418.052228,191.662457 418.29757,192.15632 418.651774,193.014483 C419.007061,193.872645 419.482041,194.109548 419.954854,194.286819 C420.42875,194.465715 421.038046,194.384941 421.598598,195.036559 C422.161857,195.688177 421.598598,196.338711 421.125784,196.782158 C420.652971,197.226147 419.825954,197.966129 419.440879,198.053951 C419.056888,198.142858 418.366353,197.554125 417.952574,196.992497 C417.538795,196.429243 417.473261,195.62475 417.857253,195.210034 C418.241244,194.796403 418.081474,194.444573 417.785221,194.148038 C417.490593,193.853671 417.217628,193.554968 417.158053,192.696805 C417.099019,191.837559 416.985825,191.596319 417.579414,191.634267 Z M420.976846,187.353754 C421.745912,187.353754 421.913265,188.714996 422.43428,189.101522 C423.165435,189.642007 424.259458,190.567391 424.85034,191.455912 C425.441762,192.342807 425.617239,194.041784 425.204002,194.751408 C424.790222,195.461574 425.085392,195.965738 425.32207,196.67482 C425.559289,197.384986 424.913165,198.497399 424.468514,198.645937 C424.025489,198.793934 423.601419,198.31796 423.483893,197.755248 C423.365284,197.19362 423.721654,196.647714 423.929085,196.291547 C424.135433,195.936464 423.396154,195.140102 423.070114,194.637565 C422.745698,194.134485 422.72945,193.658511 422.848059,193.332702 C422.966669,193.006893 422.746781,192.179089 422.243097,191.646735 C421.741579,191.114382 421.379793,189.962937 420.877192,189.57858 C420.374049,189.194223 420.209946,188.803903 420.209946,188.242275 C420.209946,187.679563 420.563066,187.353754 420.976846,187.353754 Z M425.324236,201.727841 C425.01011,202.054734 424.574667,201.87909 424.551379,201.351074 C424.527007,200.823599 424.484762,200.343288 424.7691,200.245708 C424.985739,200.170355 425.469384,200.32052 425.662733,200.596454 C425.856625,200.874015 425.638362,201.400948 425.324236,201.727841 Z M418.747095,200.586696 C418.570535,199.965437 419.12892,199.792503 419.574112,199.792503 C420.60856,199.792503 420.942183,200.200713 421.386292,200.555254 C421.828234,200.910337 422.134236,201.362458 421.453992,201.657909 C420.77483,201.954444 420.480744,201.63514 419.860075,201.604782 C419.239947,201.576592 418.924739,201.20904 418.747095,200.586696 Z M420.212112,202.2564 C420.862569,202.226042 421.36192,202.341511 421.894851,202.814775 C422.426156,203.287496 423.019745,203.758591 423.610626,204.468757 C424.202049,205.179465 424.24646,205.391431 423.705947,205.67875 C423.146479,205.973658 422.737032,205.564906 422.530684,205.328546 C422.32217,205.090559 421.647341,204.90353 420.909146,204.341903 C420.169868,203.779733 419.887154,203.573731 419.828121,203.101009 C419.77017,202.627746 419.736049,202.277 420.212112,202.2564 Z M427.201949,216.259682 C427.734338,216.880942 427.69101,217.547197 427.556153,218.213452 C427.424003,218.879165 427.23282,219.104683 426.567199,219.104683 C425.902119,219.104683 426.045642,219.058062 426.089511,218.214536 C426.133922,217.370469 425.479132,217.681641 425.167715,218.436802 C424.856839,219.191421 424.334199,219.123657 424.024406,218.946387 C423.71353,218.768574 423.383156,218.204778 423.959956,217.450159 C424.536214,216.694998 424.857922,215.268702 425.074019,214.749902 C425.296073,214.217548 425.855542,214.874045 426.122007,215.095769 C426.387389,215.318034 426.670102,215.638422 427.201949,216.259682 Z M426.24874,188.305702 C426.071097,187.299543 426.234117,186.979698 426.736718,187.038246 C427.240402,187.097878 427.616812,187.718053 427.616812,188.369671 C427.616812,189.020747 427.500368,189.861562 427.647141,190.660093 C427.795538,191.459707 427.623311,191.861954 427.179744,192.276127 C426.736718,192.690842 426.575864,192.188305 426.280694,191.359416 C425.984441,190.531612 426.425842,189.312403 426.24874,188.305702 Z M428.696754,197.882644 C429.406786,198.355907 430.206182,198.742975 430.413613,199.187507 C430.619961,199.630412 430.784606,200.321604 430.489978,200.471227 C430.193725,200.617055 429.572514,200.647413 429.129489,200.321604 C428.685922,199.995795 428.390211,199.640712 427.621144,199.67107 C426.853161,199.700344 426.497333,199.108358 426.409594,198.546731 C426.320772,197.984019 426.623525,197.524308 426.980978,197.405586 C427.42292,197.257047 427.986722,197.409923 428.696754,197.882644 Z M428.84461,188.569711 C428.874397,187.770096 429.466903,187.315807 430.116277,187.357007 C431.564504,187.445371 432.28266,187.06752 433.051727,186.683163 C433.81971,186.298263 434.715509,186.658225 435.721795,187.606378 C436.725372,188.553447 437.271301,189.209944 437.597341,189.800846 C437.921757,190.392832 438.162767,192.569409 437.660708,193.842287 C437.321127,194.701534 436.471363,195.552649 435.82199,195.908816 C435.17045,196.263357 434.845492,196.660183 434.608815,197.342159 C434.372679,198.022509 433.91828,198.412287 433.17846,198.263749 C432.439182,198.116294 432.447847,197.879391 432.447847,197.405586 C432.447847,196.931781 433.084764,196.449301 433.527789,196.005312 C433.971898,195.561865 434.284941,194.333982 435.054007,193.682906 C435.823073,193.030746 436.420995,192.25119 436.452407,191.583308 C436.466489,191.287858 436.185942,190.549502 435.59452,189.928242 C435.003097,189.306982 434.283857,189.702724 434.195036,190.087081 C434.107297,190.47198 433.874952,190.503422 433.401056,190.532696 C432.927701,190.56197 432.499299,190.213393 432.352526,189.769403 C432.204671,189.324872 431.933873,188.739934 431.430188,188.591937 C430.927587,188.443941 429.989543,188.963284 429.841146,189.674534 C429.69329,190.3847 429.46257,190.788573 429.078579,190.3744 C428.693504,189.960769 428.815363,189.368783 428.84461,188.569711 Z M431.430188,236.794866 C431.828803,236.085784 433.002983,236.982979 433.846248,237.781509 C434.687888,238.580039 435.464537,239.364474 435.643263,240.296364 C435.820907,241.228796 435.598852,241.273791 435.199154,241.183801 C434.799998,241.095437 434.334767,240.26709 434.29144,239.690826 C434.247029,239.113477 433.380475,239.186662 433.248326,239.364474 C433.115093,239.541745 433.115093,240.519172 432.805301,240.696442 C432.495508,240.873713 431.962036,240.785349 431.873214,240.164089 C431.785475,239.541745 431.430188,239.053845 431.208134,238.699304 C430.986621,238.344221 431.158307,237.280056 431.430188,236.794866 Z M433.212581,220.563505 C433.399973,220.980931 433.436801,221.360951 432.949365,221.360951 C432.460304,221.360951 432.27237,221.248192 432.27237,220.753244 C432.27237,220.41063 432.310282,220.220891 432.610868,220.220891 C432.910912,220.220891 433.024105,220.144453 433.212581,220.563505 Z M432.087144,219.181121 C431.713443,219.181121 431.451311,218.474208 431.451311,217.803074 C431.451311,217.317342 431.675531,217.205667 432.049774,217.392695 C432.424559,217.578639 432.647696,217.765126 432.647696,218.398854 C432.647696,219.032582 432.461387,219.181121 432.087144,219.181121 Z M429.555725,225.5634 C429.997667,226.096837 430.754277,226.27194 431.020742,226.715929 C431.286124,227.16046 432.016195,227.23473 432.192756,226.61347 C432.370399,225.99221 433.060392,226.228028 433.414596,227.115465 C433.7688,228.002902 433.990854,228.357985 433.591156,228.891422 C433.193625,229.423776 432.125056,229.178741 431.017492,229.222652 C429.908846,229.267648 429.634798,229.550088 428.792075,230.305249 C427.949893,231.058784 427.295104,230.977467 426.719929,230.800197 C426.142046,230.6213 426.3641,229.157599 426.231951,227.825631 C426.098718,226.494205 426.847745,226.012268 427.425087,225.627911 C427.957475,225.271744 429.111616,225.030504 429.555725,225.5634 Z M428.378295,211.946101 C429.088328,212.168367 428.906351,212.701804 428.950762,214.077683 C428.995173,215.453562 429.219394,215.682333 429.619092,216.082412 C430.017706,216.480864 429.99875,217.071223 429.777779,217.3374 C429.555725,217.603577 428.859774,217.085318 428.282975,216.464058 C427.706716,215.842256 427.805829,214.588352 427.805829,213.345833 C427.805829,212.102771 427.674762,211.725461 428.378295,211.946101 Z M438.258088,245.846502 C438.967037,246.556668 438.541885,246.468846 438.009496,246.690027 C437.477649,246.911751 436.901932,246.950241 436.325674,246.595158 C435.748874,246.240075 435.846362,245.944624 435.816574,245.32228 C435.772163,244.39039 436.315925,244.568745 436.660922,244.648977 C437.238263,244.780711 437.548598,245.136878 438.258088,245.846502 Z M436.160487,227.466211 C435.62864,227.64294 434.963019,227.599028 434.297939,226.710508 C433.632317,225.824155 433.721139,224.801733 433.278114,223.915923 C432.835088,223.02686 433.044144,222.439211 433.401056,222.414274 C434.021725,222.369279 434.2102,223.110887 434.608815,223.909418 C435.00743,224.709032 435.576647,225.685375 435.975261,225.818734 C436.374418,225.951552 436.834233,225.903304 436.834233,226.391204 C436.834233,226.878562 436.692876,227.287856 436.160487,227.466211 Z M440.521959,228.745052 C440.254411,229.499129 439.901832,229.693205 439.281163,229.827107 C438.661036,229.960466 438.359908,229.38637 438.359908,228.809021 C438.359908,228.231673 438.945915,227.961159 439.40898,227.694982 C439.719314,227.517712 440.020441,227.022764 440.55283,227.377847 C441.084677,227.731846 440.787341,227.990433 440.521959,228.745052 Z M431.525509,214.491314 C431.747564,214.934762 432.551292,214.765623 433.970815,215.298518 C435.389255,215.830872 436.143698,216.097049 437.517727,216.896663 C438.477435,217.453954 439.823842,218.804896 440.667107,219.826234 C441.508747,220.846488 442.174368,221.918784 442.174368,222.31832 C442.174368,222.718399 442.409963,223.336406 442.587606,223.336406 C442.764708,223.336406 443.200151,223.45296 443.731457,223.94086 C444.264387,224.428218 444.271969,225.076584 444.271969,226.009015 C444.271969,226.941447 443.958927,226.989153 443.382127,226.900247 C442.805869,226.811883 442.129958,226.025821 442.174368,225.182295 C442.218779,224.338228 442.27998,223.782021 441.793626,223.782021 C441.304565,223.782021 441.281277,224.400028 440.394143,224.799565 C439.50755,225.199643 439.120309,224.409244 438.677284,223.654625 C438.233716,222.900006 437.916341,222.214777 438.359908,221.681339 C438.802934,221.148986 438.28246,220.198664 437.882762,220.155295 C437.483065,220.1103 436.5721,220.224144 436.040253,220.091326 C435.506781,219.957425 435.159076,218.337595 434.22699,217.227351 C433.295986,216.117649 432.005363,216.093796 431.208134,215.827619 C430.40928,215.561442 430.431486,214.804113 430.512183,214.27718 C430.601005,213.700916 431.303997,214.047325 431.525509,214.491314 Z M398.885148,209.766813 C398.353301,210.166891 397.441795,209.392214 396.909406,208.85986 C396.377559,208.326964 396.51729,207.816837 396.909406,207.554456 C397.175329,207.378269 397.102756,207.363632 397.767835,207.363632 C398.432915,207.363632 398.874316,207.811416 399.007548,208.254864 C399.140239,208.698853 399.417537,209.368361 398.885148,209.766813 Z M394.954786,211.14486 C394.378528,211.14486 393.580216,211.100949 392.871267,211.100949 C392.161234,211.100949 391.540024,210.612507 390.874944,210.080153 C390.209864,209.5478 390.800745,208.805649 391.473949,208.63651 C392.361083,208.414786 393.738903,208.581215 394.271292,209.11411 C394.803139,209.647006 395.265121,209.5478 395.531044,210.169059 C395.797509,210.790319 395.531044,211.14486 394.954786,211.14486 Z M397.882654,190.870974 C397.549572,190.612929 397.382761,190.283325 397.45371,189.93041 C397.525742,189.576412 397.913525,189.534669 398.26502,189.765066 C398.693423,190.048049 398.955555,190.659008 398.907895,191.08294 C398.860234,191.505786 398.216818,191.130103 397.882654,190.870974 Z M383.639764,210.259592 C382.726633,210.869467 382.011727,211.079265 381.10347,211.556323 C380.102601,212.081629 379.903835,212.229083 379.903835,211.723293 C379.903835,211.436516 379.901127,211.073843 380.348486,210.769177 C381.3239,210.102922 381.395932,209.309813 382.63727,208.732464 C383.878608,208.156199 384.615178,208.39527 384.615178,208.839802 C384.615178,209.283249 384.438076,209.727238 383.639764,210.259592 Z M376.248063,216.018442 C375.716216,216.062353 375.458416,216.452132 374.849662,216.781735 C373.784885,217.359084 373.44043,217.14495 373.396019,216.612597 C373.351608,216.080243 374.106593,216.003805 374.372516,215.605353 C374.63844,215.205275 374.903822,215.325082 376.18957,215.368993 C377.475319,215.413988 376.780452,215.973447 376.248063,216.018442 Z M460.83289,226.964216 C459.18048,225.436546 456.340351,224.503572 454.094353,224.100241 C451.743285,223.678478 448.477462,223.655709 446.465975,224.034645 C446.355489,224.055246 445.935752,224.082893 445.631917,223.888275 C445.360577,223.714257 445.016664,223.398749 444.685207,222.827905 C443.986007,221.618996 441.506581,218.627625 438.583046,216.337204 C435.806284,214.163337 431.398234,212.455144 431.398234,212.455144 C430.46019,211.373631 430.572301,209.384624 431.000703,208.620789 C431.430188,207.857496 431.907334,206.855132 432.097435,205.328546 C432.213878,204.394488 432.205212,203.604089 432.182465,203.128657 C432.167301,202.828327 432.264788,202.654852 432.491175,202.595219 C432.717562,202.536129 433.051727,202.416865 433.480129,202.177794 C434.338017,201.700735 435.292309,200.316183 436.961508,198.455656 C438.629623,196.594587 439.201548,194.542153 439.488594,192.823117 C439.774015,191.105708 439.678694,189.57858 438.438981,188.194027 C437.199268,186.810559 435.292309,185.616287 435.292309,185.616287 C435.292309,185.616287 435.006346,185.188561 434.958144,184.805288 C434.911567,184.424184 435.387088,183.85063 435.911895,183.42182 C436.436701,182.991383 437.009168,181.942397 437.103947,181.513045 C437.199268,181.083151 437.627671,180.652714 438.009496,180.510139 C438.391321,180.368106 438.677284,179.891047 437.724075,178.983553 C436.769783,178.076058 434.768586,176.358107 431.81093,175.308579 C428.855441,174.258509 429.237267,175.308579 429.237267,175.97646 C429.237267,176.6438 429.427908,177.50413 428.950762,177.647248 C428.473616,177.790365 427.759251,177.885235 427.711049,178.315129 C427.679095,178.602448 428.053338,179.041017 428.304097,179.297977 C428.428122,179.425374 428.503946,179.759314 428.330635,180.033081 C428.130786,180.350216 427.853489,180.557845 427.663389,180.940033 C427.453791,181.36017 427.472747,181.751574 427.902233,182.038351 C428.218525,182.249233 428.140535,182.70569 428.045214,183.087879 C427.915231,183.608848 428.328469,184.314677 428.543482,184.635065 C428.615514,184.741319 428.65126,185.029722 428.640428,185.13706 C428.594392,185.630924 428.451411,186.016907 427.472747,185.665619 C426.280694,185.235183 425.947613,185.616287 424.660239,186.094429 C423.371783,186.571488 422.466234,186.237547 420.89344,186.189299 C419.320104,186.142677 418.414014,187.001924 417.698565,187.765217 C417.162385,188.337145 416.572046,188.776797 416.310997,188.959489 C416.223258,189.020747 416.153392,189.005568 416.111148,188.917746 C415.91184,188.491647 415.209932,187.127152 413.788784,185.665619 C412.071925,183.898878 410.450929,183.278702 409.163555,182.848808 C407.876182,182.419456 406.874771,182.038351 405.635058,181.130314 C404.1018,180.00977 402.726688,179.651976 401.153351,179.698598 C399.973214,179.734377 399.034628,179.663361 398.638722,179.625413 C398.507114,179.612944 398.423166,179.531628 398.2921,179.418868 C398.161034,179.305025 397.910817,179.149439 397.434212,178.983553 C396.82925,178.771587 396.224287,178.809535 395.863042,178.865915 C395.654528,178.896815 395.544042,179.123418 395.555416,179.216661 C395.664277,180.065065 395.948073,180.809384 396.078598,181.120556 C396.120301,181.218679 396.074265,181.45775 396.043935,181.55804 C395.976778,181.780306 395.928034,182.019377 395.897705,182.188516 C395.872791,182.327839 395.566248,182.424877 395.431932,182.433008 C394.474932,182.491556 393.943085,182.740928 393.736737,182.862361 C393.667954,182.903019 393.653331,183.047763 393.705866,183.232623 C393.823934,183.653843 394.11802,184.41551 394.779851,184.901242 C395.733601,185.600566 394.716484,186.810559 393.953375,188.146321 C393.190267,189.483168 392.364333,191.519339 392.618341,193.110437 C392.87235,194.701534 394.144017,196.100724 395.097767,195.974412 C396.050976,195.845931 397.322643,196.037839 398.276394,196.928528 C399.230144,197.818675 398.14966,199.536626 397.322643,200.68265 C396.496168,201.828132 395.860876,203.164437 395.034401,204.755534 C394.207925,206.346631 392.427699,206.283204 391.347216,205.901015 C390.26619,205.518827 388.803881,204.946357 387.341572,204.755534 C385.879805,204.564711 385.561888,203.86376 383.082462,204.692107 C380.603036,205.518827 378.250343,207.618425 375.198992,210.164722 C372.14764,212.708852 371.257256,214.301033 370.685331,215.382546 C370.112864,216.464058 369.668214,217.355289 369.477572,218.436802 C369.28693,219.518314 368.397088,219.836534 367.252696,220.854619 C366.107762,221.872705 365.726479,222.573113 366.235037,223.399833 C366.743596,224.226553 367.824621,224.100241 369.922222,224.163126 C372.020365,224.226553 371.829723,223.273521 371.829723,222.445716 C371.829723,221.618996 372.719565,220.727223 373.482674,219.645711 C374.245241,218.564198 375.390175,217.863248 376.407292,217.736936 C377.424409,217.60954 378.759443,217.29132 379.776019,216.59037 C380.793677,215.891046 382.383261,215.764192 384.417496,214.809534 C386.451188,213.854333 387.214839,213.918845 388.422598,214.236522 C389.630357,214.554741 391.219941,215.254607 392.427699,215.254607 C393.636,215.254607 394.398567,215.955015 395.415684,216.781735 C396.432801,217.60954 398.213027,216.972559 399.532355,217.831805 C400.749321,218.625457 401.773479,219.550299 402.631367,220.79065 C403.209791,221.627128 403.831543,222.376868 404.175457,222.776947 C404.341727,222.969396 404.307065,223.100045 404.09855,223.128235 C403.632778,223.19112 402.806844,223.301711 402.345404,223.36839 C401.677616,223.463802 401.773479,224.751859 402.154762,225.420282 C402.611328,226.220981 404.204703,226.852541 405.349095,227.281893 C406.493487,227.711788 406.684129,228.522786 408.257465,229.19121 C409.830801,229.859091 411.785963,229.380949 412.786832,228.522786 C413.421041,227.979049 413.789868,227.59686 414.170068,227.424469 C414.389956,227.325262 414.974879,227.495485 415.068034,227.577344 C417.573998,229.75609 420.35726,230.916751 421.322925,231.14769 C421.991255,231.307071 422.447278,231.764613 422.675832,232.050848 C422.790109,232.193966 422.663917,232.522485 422.580511,232.640665 C421.784907,233.773679 421.49082,235.140342 421.274182,236.350335 C421.035879,237.686097 420.559275,239.260931 420.463954,241.408235 C420.368633,243.557165 420.130873,245.89475 419.366681,246.84995 C418.604114,247.804066 415.981706,248.997254 414.837314,249.712841 C413.692922,250.42897 411.45234,250.476676 409.926664,250.52384 C408.400447,250.572088 406.63701,250.954276 404.77717,251.335923 C402.917329,251.717027 402.726688,252.529652 402.059441,253.674592 C401.391112,254.818989 401.391112,255.486871 400.485564,255.536203 C399.770115,255.573066 399.198732,254.532754 397.19591,253.864873 C396.022272,253.473469 394.811805,253.960827 393.953375,254.867779 C393.095487,255.77419 392.189397,255.583367 391.283307,255.67932 C390.377759,255.77419 389.948273,256.967377 389.852952,258.255976 C389.757632,259.544033 389.757632,260.594645 390.330098,261.548762 C390.902024,262.502878 392.094076,263.506326 393.666871,263.55349 L440.012859,263.55349 C440.584243,263.55349 440.441803,262.837361 440.394143,262.264891 C440.346482,261.691879 440.488922,261.357938 441.252031,261.357938 C442.015681,261.357938 442.348762,260.88088 443.826778,260.117587 C445.305334,259.354294 446.688029,259.401458 447.165175,258.972106 C447.640696,258.542211 449.215115,256.156378 450.597268,254.914943 C451.979963,253.674592 454.841214,251.1451 456.080385,249.664593 C457.321182,248.186255 457.654263,246.514925 457.940767,245.417692 C458.226188,244.320458 458.99038,243.700282 459.275801,240.931177 C459.561222,238.163698 460.006956,237.145612 460.896256,236.127527 C461.787182,235.108899 461.659907,233.263009 462.169007,232.118612 C462.676482,230.97313 462.486382,228.491886 460.83289,226.964216 L460.83289,226.964216 Z" id="Fill-8"></path>
        </g>
    </g>
</svg>
